<svg width="108" height="108" viewBox="0 0 108 108" fill="none" xmlns="http://www.w3.org/2000/svg">
<g id="Loading">
<path id="Ellipse 4" d="M94.5 54C96.9853 54 99.0234 51.9802 98.7753 49.5073C97.7451 39.2362 93.2053 29.5789 85.8483 22.2087C77.4265 13.7719 66.0013 9.0214 54.0805 9.00007C42.1597 8.97875 30.7176 13.6883 22.2657 22.0949C13.8138 30.5015 9.04294 41.9183 9.00029 53.839C8.95763 65.7597 13.6467 77.2103 22.0382 85.6772C30.4297 94.1441 41.8379 98.9354 53.7585 98.9994C65.6791 99.0633 77.138 94.3948 85.6199 86.0184C93.0295 78.701 97.6383 69.0765 98.742 58.813C99.0077 56.3419 96.9842 54.3076 94.499 54.2898C92.0137 54.272 90.0136 56.2803 89.6862 58.7439C88.6395 66.6187 85.0081 73.9737 79.296 79.6147C72.5104 86.3158 63.3433 90.0507 53.8068 89.9995C44.2703 89.9483 35.1437 86.1152 28.4306 79.3417C21.7174 72.5682 17.9661 63.4078 18.0002 53.8712C18.0344 44.3346 21.8511 35.2012 28.6126 28.4759C35.3741 21.7506 44.5278 17.983 54.0644 18.0001C63.601 18.0171 72.7412 21.8175 79.4786 28.5669C85.1502 34.2487 88.729 41.6295 89.7192 49.5115C90.029 51.9774 92.0147 54 94.5 54Z" fill="url(#paint0_angular_4_63)"/>
</g>
<defs>
<radialGradient id="paint0_angular_4_63" cx="0" cy="0" r="1" gradientUnits="userSpaceOnUse" gradientTransform="translate(54 54) scale(26.25)">
<stop stop-color="white" stop-opacity="0"/>
<stop offset="1" stop-color="#512DE4"/>
</radialGradient>
</defs>
</svg>
